<?xml version="1.0" encoding="utf-8"?>
<!-- Generator: Adobe Illustrator 22.0.0, SVG Export Plug-In . SVG Version: 6.00 Build 0)  -->
<svg version="1.1" id="Layer_1" xmlns="http://www.w3.org/2000/svg" xmlns:xlink="http://www.w3.org/1999/xlink" x="0px" y="0px"
	 viewBox="0 0 365.5 407.5" style="enable-background:new 0 0 365.5 407.5;" xml:space="preserve">
<path d="M129,148c-0.2,6.5,0.3,12.9,2.1,19.2c3.9,14.2,18.8,17.6,28,16.6c1.5-0.2,2.3-0.8,2.7-2.4c4.2-15.2-6.3-34-21.6-38.2
	c-5-1.4-10.1-2.1-15.3-2.1c-16.1-0.2-32.3-0.4-48.4,0.8c-14.6,1.1-24.1,11.4-24.5,27.1c-0.3,10.2,2,10-10.5,9.9
	c-1.7,0-3.3-0.1-5-0.1c-2.5,0-3.7-1.3-3.7-3.7c0-7.8-0.6-15.7,1.2-23.4c3.6-14.7,13.6-22.8,27.6-26.7c5.3-1.5,10.8-2.4,16.3-2.5
	c22-0.4,44-2,65.9,1.4c25.2,3.9,39.5,21,40.2,46.5c0.4,14.5,0.4,14.5,15,14.2c7-0.1,14-0.5,20.7-3c11.4-4.5,17.3-13,18.4-25
	c0.3-3.5,0.6-6.9,0.8-10.4c0.2-2.9-1-4.2-4.2-4c-14,1.1-22,9-22.7,23.1c-0.2,3.7-0.2,7.3-0.3,11c0,3.2-1.2,5-4.8,4.9
	c-4.2-0.1-8.3,0-12.5,0c-2.8,0-4.4-1-4.4-4c0-8.5-0.1-17,1.7-25.4c2.9-13.1,11-21.3,23.6-25.4c6.1-2,12.3-2.9,18.6-3.4
	c3.2-0.2,5-1.3,4.9-4.8c-0.2-14.5,0.7-29-1-43.4c-1.5-12.7-11.4-22.4-25.3-24.7c-4.1-0.7-8.2-1.2-12.4-1.1
	c-16.3,0.4-32.7-1-48.9,0.9c-16.1,2-22.9,9.6-23.3,25.8C127.7,89,127.7,89,114.3,89c-8.2,0-8.3,0-8.1-8.3c0.1-5.5,0.4-11,0.9-16.5
	c1.8-16.5,11.3-27.2,27.9-31.1c8.4-2,17-3.2,25.7-3.1c17.6,0.3,35.3-0.5,52.9,1c28.3,2.3,45,16.2,47.4,48.8
	c0.9,12.3,1,24.6,0.8,36.9c-0.1,4.1,1.5,5.6,5.6,5.6c9.8-0.1,19.7-0.1,29.5,0.6c29.8,2.3,46.3,18.7,47.9,48.6c1.4,25,1.2,50,0,74.9
	c-0.3,6.5-1.8,12.9-3.9,19c-6.8,19.3-21.9,27-40.9,29.4c-10.6,1.3-21.3,1.1-32,0.9c-4.8-0.1-6.4,1.7-6.3,6.4
	c0.2,12.1,0.3,24.3-0.8,36.4c-1.4,15.7-5.4,30.3-19.4,39.9c-6.3,4.3-13.4,7.1-20.9,7.8c-26.7,2.4-53.6,3.5-80.2-0.3
	c-22.5-3.2-31.8-14-33.8-36.5c-0.5-5.3-0.4-10.6-0.6-16c-0.1-3.1,1.4-4.5,4.6-4.5c4.2,0.1,8.3,0.1,12.5,0c3.4-0.1,4.8,1.2,4.8,4.7
	c0,5.8-0.3,11.6,1.1,17.4c1.9,7.8,6.5,13,14.3,15.2c3.5,1,7.1,1.9,10.8,2.1c19.1,0.9,38.3,1.6,57.4-0.4
	c14.1-1.4,25.7-11.7,26.7-28.7c0.7-12.3,0.1-24.6,0.7-36.9c0.3-5.2-1.7-7.3-6.8-7.4c-5.5-0.1-10.9-1.4-16.2-3
	c-14.2-4.3-22.5-13.7-24.9-28.3c-1.2-7.3-1.1-14.6-1.2-21.9c0-3.7,1.6-5,5.1-4.9c4,0.2,8,0.2,12,0c3.2-0.1,4.6,1.4,4.6,4.5
	c0.1,4,0,8,0.3,12c0.8,13.3,9.1,21.5,22.3,22.5c2.1,0.1,3.9,0.2,4.6-2.6c3.6-15-6-32.5-20.7-37.4c-6.6-2.2-13.4-2.8-20.2-2.7
	c-14.5,0.2-12.5-2.9-13.8,13.4c-1.4,17.3-6.5,32.4-22.5,41.6c-8,4.6-16.8,6.6-25.8,6.9c-23.8,0.9-47.6,1.8-71.4-1.1
	c-1.8-0.2-3.6-0.6-5.4-1.1c-17.9-4.4-27.1-14.7-28.8-33.1c-0.6-6.1-0.4-12.3-0.7-18.5c-0.1-3.2,1.2-4.6,4.4-4.5
	c4.2,0.1,8.3,0.1,12.5,0c3.5-0.1,4.7,1.5,4.7,4.8c-0.1,5.2,0,10.3,0.9,15.4c1.5,8.7,6.3,14.4,14.8,17.1c4.5,1.4,9.1,2.1,13.8,2.3
	c17.5,0.5,35,1.1,52.4-0.4c16.1-1.4,28.1-12.6,28.2-28.2c0-2.8,0.8-5.6,0.9-8.4c0.2-4-1.1-5.6-5.4-5.6c-16.4-0.1-27.1,10.3-27.6,27
	c-0.1,3,0,6,0,9c-0.1,0.3-0.1,0.6-0.1,0.9c-5.1,0.1-10.3,0.1-15.4,0.2c-2.7,0.1-4-1.3-4.1-3.9c-0.3-9-0.4-18,2.5-26.7
	c3.9-11.7,12.5-18.5,23.9-22.2c6.5-2.1,13.2-3.4,20.1-3.4c3.7,0,6.2-0.8,6.3-5.6c0.1-5-2.4-6.1-6.4-6c-9,0.1-17.4-2-25.5-5.7
	c-11-5-17.5-13.5-19.8-25.3c-1.3-6.9-1.3-13.9-1.1-20.9c0.1-3.1,1.4-4.6,4.6-4.5c5,0.2,10,0.2,14.9,0.3
	C128.9,147.5,128.9,147.8,129,148z M322.8,209.2c-0.4-12.8,0.6-25.6-0.6-38.4c-1.5-16.9-11.5-26.9-28.4-28.9
	c-6.8-0.8-13.6-0.8-20.4-0.8c-12.2,0-11.8,0-12.4,12.3c-1.4,27-13.6,43.9-40.4,48.7c-9.8,1.7-19.6,1.1-29.4,1.3
	c-3.7,0.1-6.3,0.4-6.3,5.3c0,4.7,1.7,6.1,6.1,6.1c8.6,0,17.2,0.3,25.9,1c22.5,1.9,37.4,14.3,42.4,36.4c1.4,5.9,1.6,11.8,1.8,17.8
	c0.1,6.1,1.1,7,7,7c8.7,0,17.3,0.2,25.9-0.8c16.7-2,26.6-11.8,28.2-28.5C323.4,234.9,322.4,222,322.8,209.2z"/>
<path d="M129,148c-0.1-0.3-0.1-0.5-0.2-0.8c0.1,0.2,0.3,0.3,0.4,0.5C129.2,147.8,129.1,147.9,129,148z"/>
<path d="M128.9,270.9c0-0.3,0.1-0.6,0.1-0.9c0.1,0.2,0.1,0.4,0.2,0.7C129.2,270.7,129,270.8,128.9,270.9z"/>
</svg>
